<?xml version="1.0" standalone="no"?>
<!DOCTYPE svg PUBLIC "-//W3C//DTD SVG 20010904//EN"
 "http://www.w3.org/TR/2001/REC-SVG-20010904/DTD/svg10.dtd">
<svg version="1.0" xmlns="http://www.w3.org/2000/svg"
 width="256.000000pt" height="256.000000pt" viewBox="0 0 256.000000 256.000000"
 preserveAspectRatio="xMidYMid meet">
<metadata>
Created by potrace 1.11, written by Peter Selinger 2001-2013
</metadata>
<g transform="translate(0.000000,256.000000) scale(0.100000,-0.100000)"
fill="#000000" stroke="none">
<path d="M1207 2514 c-1 -1 -48 -4 -104 -8 -364 -22 -588 -101 -762 -269 -81
-79 -168 -220 -196 -322 -5 -16 -9 -32 -10 -35 -23 -77 -32 -117 -41 -195 -4
-27 -8 -53 -10 -57 -17 -28 -26 -550 -11 -618 3 -14 13 -65 21 -115 9 -49 21
-106 27 -125 5 -19 12 -46 15 -60 9 -44 89 -203 128 -253 20 -26 34 -53 30
-59 -4 -6 -3 -8 3 -5 6 4 24 -8 41 -26 16 -17 45 -43 63 -57 18 -14 41 -33 51
-42 10 -10 20 -18 23 -19 19 -3 65 -25 65 -31 0 -4 7 -8 16 -8 14 0 15 -2 3
-18 -13 -15 -12 -16 2 -4 14 10 25 9 63 -6 26 -10 43 -22 39 -27 -4 -4 -3 -5
3 -2 11 6 157 -26 152 -34 -2 -2 1 -1 5 2 5 4 33 1 63 -6 29 -7 56 -10 59 -7
3 3 5 -1 5 -9 0 -11 2 -11 10 1 5 8 10 11 10 5 0 -10 130 -18 307 -19 56 0 99
-4 96 -9 -3 -5 4 -3 16 5 17 11 25 11 42 0 12 -8 18 -9 15 -4 -8 14 61 20 75
7 9 -7 10 -6 5 3 -5 8 3 12 26 13 18 1 42 3 53 5 11 2 43 5 70 8 28 2 57 6 65
9 42 14 117 31 133 30 9 -1 15 2 12 8 -4 5 1 9 9 9 22 0 145 58 184 87 18 14
39 22 46 20 8 -3 13 1 12 11 0 9 4 16 11 15 7 -2 17 7 23 18 7 12 18 18 26 15
8 -3 13 -2 9 3 -7 13 75 102 88 94 6 -3 7 -1 3 5 -3 6 9 35 27 64 19 29 40 68
48 86 8 17 18 32 22 32 5 0 6 4 3 8 -2 4 4 27 14 50 11 24 21 54 23 67 1 13 6
27 10 31 4 4 7 20 7 36 0 15 5 28 11 28 5 0 7 4 4 10 -3 5 -1 36 5 67 31 168
34 578 6 719 -2 12 -7 37 -10 55 -20 118 -27 150 -44 204 -89 273 -278 461
-547 544 -145 44 -346 71 -561 75 -58 1 -106 1 -107 0z"/>
</g>
</svg>
